<svg xmlns="http://www.w3.org/2000/svg" viewBox="0 0 280.044 90.922">
  <path d="M 0 0 L 0 11 L 11 11 L 11 0 Z Z M 0 21 L 0 73 L 11 73 L 11 21 Z M 28 73 L 39 73 L 39 30 L 49 30 L 49 22 L 39 22 L 39 15 Q 39 10 43 10 L 49 10 L 49 0 L 40 0 Q 28 0 28 14 V 22 H 22 V 30 L 28 30 Z M 53 85 H 91 V 82 H 53 Z M 98.785 86.065 A 1 1 0 0 0 98.791 86.061 Q 104.682 92.345 113.421 90.922 Q 125.215 87.189 125.154 75.063 V 36.022 H 121.721 V 40.784 Q 116.909 34.942 110.969 35.187 Q 99.383 35.924 97.125 50.995 V 58.443 Q 99.018 73.661 111.88 73.514 Q 117.821 73.661 121.699 68.359 V 74.987 Q 121.403 85.782 111.34 87.836 Q 105.562 87.984 101.193 83.713 Z M 121.811 48.995 V 59.216 Q 120.612 69.274 112.077 69.96 Q 101.924 70.255 100.698 58.434 V 50.968 Q 101.425 39.796 111.063 38.811 Q 119.68 39.444 121.807 48.991 M 140.015 73.442 H 143.49 V 50.624 Q 144.318 40.227 153.539 38.854 Q 158.689 38.805 161.241 42.021 L 163.457 39.489 Q 159.869 35.549 153.89 35.303 Q 147.696 35.471 143.537 40.97 V 36.016 H 140.017 V 73.437 Z M 182.784 73.493 Q 189.072 73.706 194.159 66.398 Q 196.889 61.494 196.763 54.154 Q 196.846 42.667 190.007 38.071 Q 186.431 35.45 181.668 35.466 Q 176.228 35.346 172.137 39.405 Q 166.728 45.125 166.868 54.225 Q 167.048 63.483 171.541 69.233 Q 175.381 73.552 181.786 73.493 Z M 180.986 70.111 Q 176.29 69.854 172.979 65.595 Q 170.272 62.045 170.301 53.632 L 170.319 52.494 Q 171.088 44.695 174.742 41.62 Q 177.742 38.873 181.867 38.75 Q 188.302 39.1 191.057 43.921 Q 193.192 47.896 193.429 54.244 Q 193.552 59.983 190.904 65.179 Q 188.761 68.985 183.012 70.111 Z Z Z Z M 208.848 36.048 V 58.386 Q 208.808 65.759 214.287 70.188 Q 217.823 73.668 223.215 73.562 Q 229.522 73.679 233.378 68.361 V 73.197 H 237.019 V 36.023 V 36.023 H 233.378 V 59.191 Q 233.269 63.989 230.144 66.953 Q 227.181 70.116 223.326 70.2 Q 218.709 70.179 215.556 66.898 Q 212.514 63.378 212.478 58.408 V 36.059 Z M 251.628 90.36 H 255.279 V 67.974 Q 257.851 71.709 261.686 72.908 Q 263.838 73.458 266.408 73.465 Q 269.633 73.546 272.352 71.915 Q 275.604 69.731 277.804 66.116 Q 279.817 62.051 280.044 54.893 Q 280.333 47.821 277.07 41.785 Q 272.932 35.604 265.82 35.484 Q 258.974 35.764 255.33 40.99 V 35.985 H 251.676 Z M 276.689 55.248 Q 276.618 62.8 273.331 66.769 Q 270.407 69.979 266.407 70.114 Q 261.914 70.023 259.223 67.626 Q 254.921 63.607 255.012 54.3 Q 254.979 46.712 258.342 42.42 Q 261.067 39.03 265.603 38.831 Q 269.474 38.935 272.65 41.539 Q 276.853 45.59 276.715 54.064" fill="#000000"/>
</svg>