<?xml version="1.0" standalone="no"?>
<!DOCTYPE svg PUBLIC "-//W3C//DTD SVG 20010904//EN"
 "http://www.w3.org/TR/2001/REC-SVG-20010904/DTD/svg10.dtd">
<svg version="1.0"
    xmlns="http://www.w3.org/2000/svg" width="480.000000pt" height="480.000000pt" viewBox="0 0 480.000000 480.000000" preserveAspectRatio="xMidYMid meet">
    <metadata>
Created by potrace 1.11, written by Peter Selinger 2001-2013
    </metadata>
    <g transform="translate(0.000000,480.000000) scale(0.100000,-0.100000)" fill="#000000" stroke="none">
        <path d="M3458 4785 c-2 -2 -23 -6 -48 -10 -103 -14 -204 -49 -300 -102 -81
-46 -77 -42 -174 -138 -98 -96 -187 -242 -211 -345 -2 -8 -9 -31 -15 -50 -28
-87 -38 -214 -39 -504 -1 -165 -4 -302 -6 -305 -1 -3 -87 -6 -189 -6 -102 0
-187 -2 -187 -5 -4 -12 -5 -496 -2 -505 2 -7 69 -11 189 -10 102 0 188 -3 190
-7 3 -4 5 -635 5 -1403 l1 -1395 341 2 341 3 0 1397 c0 1250 2 1397 16 1400 8
2 160 3 338 3 l322 -1 0 261 0 260 -322 0 c-178 0 -330 1 -339 3 -14 3 -16 36
-14 295 2 262 4 298 22 354 29 89 59 128 133 177 72 47 123 55 373 56 l147 0
0 290 0 291 -284 -2 c-157 0 -286 -2 -288 -4z"/>
        <path d="M789 4774 c-1 -2 -2 -8 -3 -13 0 -5 -4 -13 -8 -16 -4 -4 -3 -16 2
-26 6 -10 6 -20 2 -23 -5 -3 -6 -28 -2 -56 4 -28 3 -53 -2 -56 -4 -3 -4 -14 2
-24 6 -10 6 -21 2 -24 -5 -3 -6 -28 -2 -56 4 -28 3 -53 -2 -56 -4 -3 -4 -14 2
-24 6 -10 6 -21 2 -24 -5 -3 -6 -28 -2 -56 4 -28 3 -53 -2 -56 -4 -3 -4 -14 2
-24 6 -11 6 -21 1 -25 -6 -3 -6 -17 -1 -35 5 -18 5 -32 -1 -35 -5 -4 -5 -14 1
-25 6 -11 6 -21 1 -24 -5 -3 -7 -14 -4 -24 4 -16 28 -17 361 -18 l357 0 5 240
c3 133 4 295 2 362 l-3 121 -355 0 c-195 0 -355 -1 -355 -3z"/>
        <path d="M801 3373 c-1 -34 -3 -3348 -2 -3360 1 -10 76 -13 341 -13 l340 0 0
1693 0 1693 -117 -1 c-65 0 -123 -4 -129 -8 -6 -3 -14 -3 -18 1 -12 11 -66 10
-66 -2 0 -7 -3 -8 -8 0 -9 13 -145 13 -154 -1 -5 -7 -8 -6 -8 2 0 12 -47 12
-66 0 -6 -3 -14 -3 -18 1 -12 11 -60 10 -68 -2 -5 -7 -8 -7 -8 2 0 19 -19 14
-19 -5z"/>
    </g>
</svg>
